 
<svg xmlns="http://www.w3.org/2000/svg" width="22" height="20" viewBox="0 0 22 20" fill="none">
  <path d="M10.4857 19.9989C5.95109 19.9989 2.71561 18.7927 1.12238 16.5248C-0.250203 14.5464 -0.372803 11.9168 0.803853 8.90106C1.5883 6.85029 3.81869 5.45117 6.34339 5.45117C8.23079 5.45117 10.118 6.22328 11.7113 7.64666C12.5202 7.01943 14.4321 5.74081 16.5155 5.74081C18.4274 5.74081 19.947 6.77813 21.0501 8.80482C22.3001 11.145 22.3247 13.5335 21.0746 15.5841C19.3586 18.3826 15.5105 19.9992 10.4857 19.9992L10.4857 19.9989ZM6.34322 6.56091C4.28433 6.56091 2.47045 7.67078 1.83316 9.28716C1.12242 11.1449 0.583134 13.7987 2.02927 15.8976C3.40186 17.8518 6.31874 18.8892 10.4856 18.8892C15.0937 18.8892 18.6234 17.4659 20.1185 15.005C21.148 13.3162 21.1235 11.2897 20.0695 9.31133C19.1871 7.64661 17.9859 6.82638 16.5398 6.82638C14.2848 6.82638 12.1033 8.75648 12.0788 8.78052C11.8582 8.97355 11.5151 8.97355 11.319 8.75646C9.43174 6.94685 7.56893 6.5608 6.3432 6.5608L6.34322 6.56091Z" fill="#1A162E"/>
  <path d="M11.7845 6.68414C11.711 6.68414 11.6619 6.68414 11.5884 6.66007C11.3923 6.58771 11.2453 6.41875 11.2208 6.20164C11.1964 5.98455 10.9756 4.00616 11.9806 2.87225C12.3973 2.38978 12.9856 2.14844 13.6964 2.14844H13.7208C16.2699 2.1725 17.9367 3.74078 18.0103 3.81315C18.1819 3.98212 18.2308 4.24733 18.1083 4.46459C17.9857 4.68168 17.7407 4.80234 17.4955 4.72998C17.2258 4.68168 16.9318 4.63355 16.6621 4.63355C14.3336 4.63355 12.1766 6.51536 12.1521 6.51536C12.0541 6.63585 11.9071 6.68415 11.7845 6.68415L11.7845 6.68414ZM13.7208 3.25829C13.3286 3.25829 13.059 3.37895 12.8384 3.59604C12.5197 3.93379 12.3973 4.51286 12.3482 5.01941C13.1327 4.51269 14.3092 3.86142 15.6574 3.62012C15.1181 3.42709 14.4563 3.25831 13.7209 3.25831L13.7208 3.25829Z" fill="#1A162E"/>
  <path d="M9.89739 5.45237H9.82387C6.17165 5.04225 4.33336 1.92993 3.9902 1.27866C3.59798 0.940912 3.59798 0.627226 3.6715 0.434177C3.72057 0.313514 3.86762 0 4.38224 0C4.62742 0 5.11762 0.0482987 6.56374 0.554848C10.0691 1.76113 10.4367 4.72855 10.4611 4.84923C10.4856 5.01819 10.4121 5.18698 10.2895 5.30766C10.1915 5.40409 10.0445 5.45239 9.89744 5.45239L9.89739 5.45237ZM5.33831 1.32679C5.90202 2.17127 7.17665 3.66698 9.13758 4.22183C8.81889 3.42568 8.03462 2.24343 6.22071 1.61625C5.85311 1.47152 5.55886 1.37509 5.33831 1.32679V1.32679Z" fill="#1A162E"/>
</svg>