 
<svg xmlns="http://www.w3.org/2000/svg" width="18" height="22" viewBox="0 0 18 22" fill="none">
  <path d="M0.576968 9.42856H0.663449L2.88896 21.56C2.9351 21.8115 3.17717 22 3.45978 22H12.6845C12.967 22 13.2092 21.8167 13.2554 21.56L15.3886 9.9368C15.4925 9.76387 15.5789 9.58586 15.6596 9.40768C15.9365 9.36576 16.144 9.16144 16.144 8.89961V6.80432C16.144 6.73101 16.1266 6.6577 16.092 6.59474C15.9075 5.09663 15.0658 3.75566 13.7974 2.73949L14.979 1.04774H17.4234C17.7406 1.04774 18 0.812023 18 0.523869C18 0.235714 17.7406 0 17.4234 0H14.6618C14.4659 0 14.2813 0.0943575 14.1717 0.246238L12.8745 2.11107C11.5311 1.31503 9.86505 0.838306 8.07189 0.838306C3.92082 0.838306 0.438866 3.36309 0.0519277 6.60005C0.0231652 6.66284 0 6.73633 0 6.80964V8.90493C0.000193025 9.19291 0.259634 9.42862 0.5768 9.42862L0.576968 9.42856ZM12.194 20.9525H3.94378L1.82792 9.42856H14.3039L12.194 20.9525ZM8.07172 1.88571C9.63993 1.88571 11.0985 2.29435 12.2689 2.99096L11.2657 4.43663C11.0985 4.68287 11.1734 5.00243 11.4445 5.15958C11.5425 5.21202 11.6462 5.23815 11.75 5.23815C11.9404 5.23815 12.1305 5.14905 12.2402 4.99191L13.1799 3.63532C14.0331 4.36334 14.6385 5.26951 14.875 6.28061H1.26885C1.84526 3.77666 4.69911 1.88569 8.07166 1.88569L8.07172 1.88571ZM1.15327 7.33317H14.9902V8.38073H1.15327V7.33317Z" fill="#1A162E"/>
</svg>