 
<svg xmlns="http://www.w3.org/2000/svg" width="22" height="22" viewBox="0 0 22 22" fill="none">
  <path d="M17.9226 21.9995C17.9083 21.9995 17.894 21.9995 17.8797 21.9987C17.5985 21.9866 17.3339 21.8569 17.153 21.6419C15.5902 19.7836 15.2925 17.5985 16.4456 16.4455C17.5984 15.2926 19.7848 15.5902 21.6422 17.1527C21.8569 17.3331 21.987 17.5981 21.9993 17.8795C22.0115 18.1615 21.9041 18.4376 21.7044 18.6373L21.6254 18.7166L21.5189 18.7502C21.2665 18.8303 20.9724 18.8343 20.6913 18.8298C20.4713 18.8329 20.1398 18.829 20.0449 18.8933C19.5424 19.2321 19.1102 19.6838 18.7945 20.1998C18.7828 20.2485 18.8056 20.4764 18.8191 20.6124C18.8462 20.8827 18.874 21.1625 18.79 21.4046L18.7117 21.6293L18.6374 21.7036C18.448 21.8932 18.1895 21.9996 17.9225 21.9996L17.9226 21.9995ZM17.0936 17.0938C16.3114 17.8761 16.6456 19.6145 17.8544 21.0522C17.8748 21.0764 17.9008 21.0822 17.919 21.0832C17.9212 21.0827 17.924 21.0827 17.9279 21.0832C17.937 21.0039 17.9187 20.8187 17.9071 20.7036C17.873 20.3617 17.8377 20.008 18.0126 19.7221C18.3965 19.0946 18.9217 18.5455 19.5322 18.1337C19.86 17.9121 20.3016 17.9099 20.6921 17.9134C20.8248 17.9126 20.9658 17.9139 21.0815 17.9036C21.0782 17.888 21.0703 17.87 21.0524 17.8549C19.615 16.6458 17.8763 16.3123 17.0936 17.0938L17.0936 17.0938Z" fill="#1A162E"/>
  <path d="M3.7198 6.25463C2.67243 6.25463 1.4578 5.77304 0.358035 4.84785C0.143403 4.66747 0.0132277 4.40247 0.000927769 4.12103C-0.0112088 3.83908 0.0961906 3.56296 0.295859 3.36327L0.370339 3.28846L0.595778 3.21066C0.837508 3.12737 1.11748 3.15464 1.38732 3.18157C1.52314 3.19537 1.75074 3.21698 1.82041 3.19636C2.31615 2.89014 2.76823 2.45789 3.10701 1.95616C3.17085 1.86123 3.17052 1.52959 3.17036 1.31029C3.17019 1.02717 3.17002 0.734894 3.25016 0.482053L3.28391 0.37549L3.36288 0.296688C3.56254 0.0970277 3.84002 -0.0156849 4.12066 0.00176842C4.4018 0.0139045 4.66646 0.143574 4.84734 0.35853C6.41012 2.21682 6.70787 4.40195 5.55474 5.55495C5.0844 6.02527 4.4417 6.25454 3.71983 6.25454L3.7198 6.25463ZM0.916811 4.07349V4.08147C0.917642 4.09943 0.923793 4.12536 0.9479 4.14598C2.38563 5.35541 4.12448 5.68839 4.9067 4.90688C5.68892 4.12453 5.35473 2.38613 4.14593 0.948408C4.13064 0.930454 4.11252 0.922474 4.09689 0.919316C4.08675 1.03519 4.08708 1.17799 4.08708 1.30916C4.08758 1.69901 4.08791 2.14072 3.8668 2.46838C3.45499 3.0785 2.90553 3.60385 2.2781 3.98785C1.99298 4.16291 1.63872 4.1275 1.29657 4.09342C1.18252 4.08295 1.00031 4.06449 0.916854 4.07347L0.916811 4.07349ZM5.23073 5.23088H5.23522H5.23073Z" fill="#1A162E"/>
  <path d="M14.3319 18.1301C12.2197 18.1301 9.60004 16.8961 7.35242 14.6488C5.75543 13.0518 4.60991 11.1846 4.12749 9.39105C3.62077 7.50851 3.8974 5.91685 4.90588 4.90876C5.91405 3.90034 7.50572 3.6237 9.38834 4.13041C11.1821 4.61336 13.0495 5.75879 14.6463 7.35572C16.2433 8.95265 17.3888 10.8199 17.8712 12.6134C18.3779 14.496 18.1013 16.0876 17.0928 17.0957C16.3931 17.7958 15.4306 18.1301 14.3315 18.1301H14.3319ZM7.64779 4.79943C6.77547 4.79943 6.05543 5.05545 5.55386 5.55668C4.78709 6.32342 4.59493 7.60082 5.01253 9.15306C5.4541 10.7939 6.5153 12.5157 8.00057 14.0009C10.9527 16.9531 14.8196 18.0731 16.445 16.4479C17.2118 15.6811 17.4039 14.4037 16.9863 12.8515C16.5447 11.2106 15.4835 9.48885 13.9983 8.00364C12.5131 6.51808 10.7913 5.45692 9.15022 5.01554C8.61306 4.87108 8.10915 4.79943 7.64762 4.79943L7.64779 4.79943Z" fill="#1A162E"/>
</svg>